<?xml version="1.0" encoding="utf-8"?>
<!-- Generator: Adobe Illustrator 25.2.1, SVG Export Plug-In . SVG Version: 6.00 Build 0)  -->
<svg version="1.1" id="Camada_1" xmlns="http://www.w3.org/2000/svg" xmlns:xlink="http://www.w3.org/1999/xlink" x="0px" y="0px"
	 viewBox="0 0 600 665" style="enable-background:new 0 0 600 665;" xml:space="preserve">
<style type="text/css">
	.st0{opacity:0.15;fill:#CA8CFF;enable-background:new    ;}
	.st1{fill:none;}
</style>
<path class="st0" d="M661-18.99c0,0.02-0.32,0.11-0.99,0.26c-0.67,0.14-1.65,0.35-2.95,0.62c-2.6,0.53-6.48,1.35-11.51,2.56
	c-5.02,1.24-11.22,2.87-18.37,5.23c-7.12,2.39-15.26,5.43-23.88,9.84c-8.6,4.39-17.78,10.05-26.44,17.76
	c-8.67,7.67-16.75,17.5-22.71,29.49c-2.95,5.99-5.33,12.54-6.77,19.55c-1.43,6.99-1.94,14.48-1.09,22.08
	c0.49,3.77,1.45,7.59,3.28,11.08c0.92,1.74,2.07,3.38,3.45,4.81c1.37,1.42,3.03,2.61,4.84,3.51c3.6,1.82,7.99,2.43,11.66,1.03
	c1.81-0.7,3.34-1.94,4.5-3.52c1.17-1.57,1.95-3.44,2.49-5.41c0.99-3.96,1.18-8.26,0.5-12.5c-0.67-4.24-2.15-8.47-4.31-12.42
	c-4.29-7.91-11.23-14.87-19.76-19.27c-8.55-4.4-18.56-6.3-28.43-5.77c-9.88,0.52-19.77,3.19-28.57,7.99
	c-17.73,9.46-31.31,26.54-37.52,46.59c-3.1,10.04-4.41,20.81-3.76,31.75c0.55,10.94,3.02,22,6.92,32.75
	c3.97,10.75,9.44,21.18,16.25,30.98c6.79,9.83,14.61,19.26,21.66,29.45c3.52,5.09,6.84,10.4,9.6,16.02
	c2.76,5.61,4.94,11.56,6.14,17.71c0.58,3.08,0.93,6.2,1.05,9.31c0.1,3.12-0.07,6.23-0.43,9.33c-0.77,6.18-2.45,12.22-4.86,17.94
	c-4.83,11.47-12.33,21.73-21.21,30.71c-4.45,4.49-9.27,8.67-14.39,12.51c-5.13,3.85-10.54,7.32-16.05,10.69
	c-22.14,13.38-46.6,23.39-69.61,36.18c-5.77,3.16-11.35,6.59-16.78,10.14c-5.4,3.59-10.51,7.51-15.36,11.7
	c-9.62,8.41-18.09,17.96-24.5,28.66c-6.39,10.67-10.63,22.56-11.39,34.84c-0.18,3.06-0.15,6.14,0.07,9.2
	c0.25,3.06,0.73,6.12,1.37,9.13c1.31,6.05,3.37,11.96,5.78,17.72c4.84,11.55,11.03,22.57,16.06,34.02
	c2.52,5.71,4.72,11.57,6.32,17.53c1.59,5.96,2.69,11.99,3.15,18.02c0.9,12.05-0.3,24.07-4.04,35.16
	c-1.88,5.53-4.34,10.83-7.39,15.75c-0.8,1.21-1.55,2.45-2.39,3.62c-0.88,1.15-1.75,2.3-2.63,3.45c-1.88,2.19-3.77,4.37-5.91,6.31
	c-4.19,3.94-8.8,7.43-13.81,10.27c-5.01,2.82-10.34,5.09-15.84,6.74c-5.51,1.69-11.28,2.54-17.03,2.79
	c-2.88,0.19-5.78-0.01-8.65-0.18c-1.44-0.18-2.87-0.36-4.29-0.54c-1.43-0.19-2.83-0.58-4.25-0.85c-11.28-2.54-21.51-8.04-30.45-14.5
	c-8.98-6.49-16.85-13.95-24.3-21.45c-14.87-15-28.42-30.17-41.71-44.46c-13.27-14.32-26.31-27.79-39.61-39.8
	c-13.3-11.99-26.93-22.4-40.67-30.98c-13.77-8.49-27.64-15.15-41.19-19.58c-6.74-2.31-13.44-3.91-19.92-5.18
	c-1.63-0.27-3.24-0.54-4.83-0.81c-1.59-0.29-3.19-0.38-4.76-0.59c-3.14-0.43-6.23-0.54-9.25-0.71c-1.51-0.12-3.01-0.07-4.48-0.08
	c-1.47,0-2.94,0.01-4.38,0.01c-1.44,0.08-2.85,0.17-4.26,0.25c-1.4,0.09-2.8,0.12-4.15,0.32c-1.36,0.16-2.7,0.32-4.03,0.46
	c-0.67,0.08-1.32,0.15-1.97,0.24c-0.64,0.11-1.28,0.23-1.93,0.34c-2.55,0.46-5.06,0.82-7.42,1.47c-9.55,2.2-17.65,5.39-24.29,8.74
	c-1.62,0.9-3.18,1.77-4.67,2.61c-0.37,0.21-0.75,0.42-1.11,0.62c-0.34,0.23-0.69,0.46-1.03,0.69c-0.68,0.45-1.34,0.89-2,1.32
	c-2.66,1.65-4.82,3.48-6.8,5.01c-0.49,0.4-0.99,0.76-1.43,1.15c-0.43,0.41-0.86,0.79-1.26,1.16c-0.81,0.76-1.57,1.46-2.26,2.1
	c-1.45,1.25-2.45,2.49-3.33,3.43c-0.87,0.94-1.53,1.65-1.99,2.13c-0.45,0.47-0.69,0.7-0.71,0.69c-0.02-0.01,0.18-0.28,0.58-0.78
	c0.42-0.51,1.05-1.25,1.87-2.24c0.84-0.97,1.82-2.26,3.24-3.54c0.69-0.67,1.43-1.39,2.22-2.17c0.4-0.38,0.81-0.79,1.24-1.21
	c0.44-0.41,0.93-0.78,1.42-1.19c1.97-1.59,4.1-3.47,6.77-5.17c0.65-0.44,1.31-0.9,1.99-1.37c0.34-0.24,0.68-0.46,1.03-0.7
	c0.37-0.21,0.74-0.42,1.11-0.64c1.5-0.86,3.06-1.76,4.67-2.69c6.65-3.47,14.78-6.75,24.41-9.07c2.38-0.67,4.91-1.06,7.48-1.55
	c0.64-0.12,1.3-0.24,1.95-0.36c0.65-0.1,1.32-0.17,2-0.26c1.34-0.17,2.7-0.34,4.07-0.51c1.37-0.2,2.77-0.25,4.19-0.35
	c1.42-0.09,2.85-0.18,4.31-0.28c1.46-0.01,2.94-0.02,4.42-0.05c1.5,0,3-0.07,4.53,0.05c3.06,0.15,6.19,0.25,9.36,0.65
	c1.59,0.19,3.2,0.28,4.82,0.56c1.62,0.26,3.25,0.53,4.89,0.8c6.55,1.25,13.33,2.83,20.17,5.13c13.73,4.4,27.76,11.06,41.69,19.58
	c13.89,8.59,27.67,19.02,41.1,31.05c13.43,12.02,26.56,25.53,39.89,39.82c13.36,14.28,26.94,29.39,41.79,44.29
	c7.42,7.43,15.21,14.78,24.01,21.11c8.77,6.3,18.67,11.57,29.46,13.98c1.36,0.26,2.69,0.62,4.06,0.8l4.12,0.51
	c2.76,0.16,5.53,0.35,8.29,0.16c5.52-0.26,11.06-1.07,16.37-2.71c5.32-1.59,10.44-3.79,15.27-6.53c4.82-2.75,9.27-6.13,13.3-9.93
	c8.15-7.58,13.96-17.45,17.6-28.14c3.62-10.74,4.77-22.43,3.88-34.14c-0.45-5.87-1.52-11.74-3.08-17.53
	c-1.56-5.79-3.7-11.49-6.2-17.13c-4.96-11.28-11.17-22.3-16.11-34.05c-2.46-5.87-4.59-11.94-5.95-18.22
	c-0.68-3.14-1.17-6.31-1.43-9.51c-0.24-3.19-0.26-6.4-0.08-9.58c0.79-12.78,5.2-25.09,11.74-36.05
	c6.58-10.98,15.24-20.74,25.04-29.32c4.92-4.27,10.13-8.26,15.63-11.92c5.52-3.6,11.15-7.07,16.97-10.26
	c23.21-12.9,47.64-22.9,69.54-36.12c5.44-3.33,10.8-6.76,15.82-10.52c5.02-3.77,9.75-7.85,14.09-12.24
	c8.69-8.77,16-18.77,20.67-29.86c2.34-5.53,3.95-11.32,4.7-17.24c0.34-2.96,0.51-5.94,0.42-8.91c-0.12-2.98-0.44-5.95-1-8.88
	c-1.14-5.87-3.22-11.58-5.89-17.02c-2.66-5.44-5.9-10.63-9.36-15.66c-6.93-10.06-14.75-19.5-21.62-29.48
	c-6.91-9.98-12.49-20.65-16.52-31.62c-3.97-10.98-6.48-22.3-7.03-33.52c-0.65-11.2,0.71-22.29,3.93-32.59
	c6.43-20.58,20.4-38.11,38.76-47.85c9.12-4.93,19.35-7.69,29.62-8.2c10.27-0.52,20.7,1.47,29.68,6.13
	c8.99,4.67,16.21,11.98,20.7,20.31c2.25,4.17,3.79,8.61,4.48,13.12c0.7,4.5,0.5,9.03-0.59,13.31c-0.58,2.13-1.46,4.21-2.81,6.02
	c-1.33,1.81-3.19,3.31-5.36,4.14c-2.18,0.82-4.54,1.04-6.83,0.79c-2.3-0.24-4.51-0.95-6.53-1.96c-2.02-1.02-3.88-2.35-5.42-3.96
	c-1.52-1.6-2.77-3.39-3.76-5.27c-1.97-3.77-2.95-7.8-3.44-11.73c-0.83-7.87-0.27-15.48,1.23-22.62c1.51-7.15,3.96-13.81,7.01-19.88
	c6.13-12.16,14.39-22.07,23.23-29.77c8.83-7.74,18.15-13.38,26.86-17.72c8.72-4.37,16.94-7.34,24.13-9.65
	c7.21-2.29,13.45-3.83,18.52-4.98c5.08-1.12,8.98-1.84,11.61-2.28c1.32-0.2,2.31-0.36,2.99-0.47
	C660.64-18.98,660.99-19.02,661-18.99"/>
<rect x="-21.09" y="174.75" transform="matrix(0.7968 -0.6042 0.6042 0.7968 -181.5114 339.0303)" class="st1" width="868.88" height="529.32"/>
</svg>
